<svg xmlns="http://www.w3.org/2000/svg" baseProfile="tiny" viewBox="0 0 960 480" overflow="visible" fill="#fff"><path d="M231.6 262.44l21-56.4h7.8l-21 56.4h-7.8zm43.8-19.62l-5.52-3.84 2.46-3.54c.6-.88 1.35-1.74 2.25-2.58l2.7-2.34 2.31-1.8-.12-.36c-.84 0-1.83-.04-2.97-.12s-2.3-.23-3.48-.45-2.25-.49-3.21-.81l-4.02-1.44 2.34-6.36 3.96 1.44c.96.32 1.96.8 3 1.44l2.97 1.98 2.37 1.86.3-.24-.87-2.94c-.34-1.12-.63-2.3-.87-3.54s-.36-2.38-.36-3.42v-4.32h6.72v4.32c0 1.04-.12 2.18-.36 3.42l-.84 3.54-.96 2.94.3.18c.64-.56 1.43-1.17 2.37-1.83l2.97-1.95c1.04-.64 2.04-1.12 3-1.44l4.02-1.44 2.34 6.36-4.08 1.44c-.92.32-1.97.59-3.15.81s-2.33.37-3.45.45l-3 .12-.12.36 2.31 1.83 2.7 2.37c.9.84 1.63 1.68 2.19 2.52l2.46 3.54-5.52 3.84-2.46-3.54c-.6-.84-1.15-1.83-1.65-2.97l-1.32-3.39-.93-2.82h-.36l-.93 2.82-1.32 3.39c-.5 1.14-1.07 2.13-1.71 2.97l-2.46 3.54zm36 0l-5.52-3.84 2.46-3.54c.6-.88 1.35-1.74 2.25-2.58l2.7-2.34 2.31-1.8-.12-.36c-.84 0-1.83-.04-2.97-.12s-2.3-.23-3.48-.45-2.25-.49-3.21-.81l-4.02-1.44 2.34-6.36 3.96 1.44c.96.32 1.96.8 3 1.44l2.97 1.98 2.37 1.86.3-.24-.87-2.94c-.34-1.12-.63-2.3-.87-3.54s-.36-2.38-.36-3.42v-4.32h6.72v4.32c0 1.04-.12 2.18-.36 3.42l-.84 3.54-.96 2.94.3.18c.64-.56 1.43-1.17 2.37-1.83l2.97-1.95c1.04-.64 2.04-1.12 3-1.44l4.02-1.44 2.34 6.36-4.08 1.44c-.92.32-1.97.59-3.15.81s-2.33.37-3.45.45l-3 .12-.12.36 2.31 1.83 2.7 2.37c.9.84 1.63 1.68 2.19 2.52l2.46 3.54-5.52 3.84-2.46-3.54c-.6-.84-1.15-1.83-1.65-2.97l-1.32-3.39-.93-2.82h-.36l-.93 2.82-1.32 3.39c-.5 1.14-1.07 2.13-1.71 2.97l-2.46 3.54zm80.1 23.76c-3.6 0-6.7-.7-9.3-2.1s-4.62-3.4-6.06-6-2.16-5.7-2.16-9.3v-20.34c0-3.6.68-6.7 2.04-9.3s3.3-4.6 5.82-6 5.54-2.1 9.06-2.1c3.2 0 5.95.61 8.25 1.83s4.07 2.92 5.31 5.1 1.86 4.71 1.86 7.59v25.98h-6.06v-4.26h-1.08l.9-.6c0 1.6-.59 2.91-1.77 3.93s-2.75 1.53-4.71 1.53c-2.52 0-4.44-.84-5.76-2.52s-1.98-4.06-1.98-7.14v-6.84c0-3.08.66-5.46 1.98-7.14s3.24-2.52 5.76-2.52c1.96 0 3.53.5 4.71 1.5s1.77 2.32 1.77 3.96l-.84-.6h1.02l-.18-4.68v-.6c0-2.92-.81-5.17-2.43-6.75s-3.95-2.37-6.99-2.37c-3.28 0-5.84 1.05-7.68 3.15s-2.76 5.05-2.76 8.85v20.34c0 3.72.99 6.6 2.97 8.64s4.75 3.06 8.31 3.06h4.2v5.7h-4.2zm4.5-18.6c1.44 0 2.48-.42 3.12-1.26s.96-2.2.96-4.08v-6.6c0-1.68-.34-2.95-1.02-3.81s-1.7-1.29-3.06-1.29-2.38.43-3.06 1.29-1.02 2.13-1.02 3.81v6.84c0 1.8.34 3.1 1.02 3.9s1.7 1.2 3.06 1.2zm30.18 8.46c-2.8 0-5.25-.53-7.35-1.59s-3.73-2.56-4.89-4.5-1.74-4.23-1.74-6.87v-8.28c0-2.68.58-4.98 1.74-6.9s2.79-3.41 4.89-4.47 4.55-1.59 7.35-1.59c4.16 0 7.48 1.07 9.96 3.21s3.78 5.05 3.9 8.73h-7.32c-.12-1.72-.76-3.05-1.92-3.99s-2.7-1.41-4.62-1.41c-2 0-3.58.55-4.74 1.65s-1.74 2.67-1.74 4.71v8.34c0 2.04.58 3.62 1.74 4.74s2.74 1.68 4.74 1.68c1.92 0 3.46-.47 4.62-1.41s1.8-2.27 1.92-3.99h7.32c-.12 3.68-1.42 6.59-3.9 8.73s-5.8 3.21-9.96 3.21zm35.82-.06c-2.8 0-5.24-.53-7.32-1.59s-3.68-2.56-4.8-4.5-1.68-4.23-1.68-6.87v-8.16c0-2.64.56-4.93 1.68-6.87s2.72-3.44 4.8-4.5 4.52-1.59 7.32-1.59c2.84 0 5.29.53 7.35 1.59s3.65 2.56 4.77 4.5 1.68 4.21 1.68 6.81v8.22c0 2.64-.56 4.93-1.68 6.87s-2.71 3.44-4.77 4.5-4.51 1.59-7.35 1.59zm0-6.54c2 0 3.55-.55 4.65-1.65s1.65-2.69 1.65-4.77v-8.16c0-2.12-.55-3.72-1.65-4.8s-2.65-1.62-4.65-1.62c-1.96 0-3.5.54-4.62 1.62s-1.68 2.68-1.68 4.8v8.16c0 2.08.56 3.67 1.68 4.77s2.66 1.65 4.62 1.65zm22.62 6v-33h7.32v6.3h2.04l-2.04 1.74c0-2.68.79-4.79 2.37-6.33s3.75-2.31 6.51-2.31c3.24 0 5.83 1.08 7.77 3.24s2.91 5.06 2.91 8.7v21.66H504v-20.88c0-2-.52-3.54-1.56-4.62s-2.48-1.62-4.32-1.62c-1.88 0-3.35.56-4.41 1.68s-1.59 2.72-1.59 4.8v20.64h-7.5zm43.68 0v-22.56h-9.06v-6.78h9.06v-4.98c0-2.88.96-5.18 2.88-6.9s4.46-2.58 7.62-2.58h9.66v6.6h-9.48c-.96 0-1.73.27-2.31.81s-.87 1.27-.87 2.19v4.86h12.66v6.78H535.8v22.56h-7.5zm28.26 0v-6.78h11.28v-19.44h-10.08v-6.78h17.58v26.22h10.14v6.78h-28.92zm14.52-38.52c-1.52 0-2.72-.39-3.6-1.17s-1.32-1.83-1.32-3.15.44-2.37 1.32-3.15 2.08-1.17 3.6-1.17 2.72.39 3.6 1.17S576 211.68 576 213s-.44 2.37-1.32 3.15-2.08 1.17-3.6 1.17zm26.04 49.32v-6.24h9.78c1.68 0 2.94-.41 3.78-1.23s1.26-1.99 1.26-3.51v-2.46l.12-6.18h-1.62l1.62-1.62c0 2.68-.79 4.77-2.37 6.27s-3.71 2.25-6.39 2.25c-3.36 0-6.03-1.14-8.01-3.42s-2.97-5.36-2.97-9.24v-6.42c0-3.84.99-6.9 2.97-9.18s4.65-3.42 8.01-3.42c2.68 0 4.81.75 6.39 2.25s2.37 3.59 2.37 6.27l-1.62-1.62h1.62l-.18-6.3h7.5v33c0 3.32-1.1 5.95-3.3 7.89s-5.22 2.91-9.06 2.91h-9.9zm8.7-19.2c1.92 0 3.41-.57 4.47-1.71s1.59-2.73 1.59-4.77v-5.76c0-2.04-.53-3.63-1.59-4.77s-2.55-1.71-4.47-1.71-3.4.56-4.44 1.68-1.56 2.72-1.56 4.8v5.76c0 2.08.52 3.68 1.56 4.8s2.52 1.68 4.44 1.68zm65.58 7.98l-5.52-3.84 2.46-3.54c.6-.88 1.35-1.74 2.25-2.58l2.7-2.34 2.31-1.8-.12-.36c-.84 0-1.83-.04-2.97-.12s-2.3-.23-3.48-.45-2.25-.49-3.21-.81l-4.02-1.44 2.34-6.36 3.96 1.44c.96.32 1.96.8 3 1.44l2.97 1.98 2.37 1.86.3-.24-.87-2.94c-.34-1.12-.63-2.3-.87-3.54s-.36-2.38-.36-3.42v-4.32h6.72v4.32c0 1.04-.12 2.18-.36 3.42l-.84 3.54-.96 2.94.3.18c.64-.56 1.43-1.17 2.37-1.83l2.97-1.95c1.04-.64 2.04-1.12 3-1.44l4.02-1.44 2.34 6.36-4.08 1.44c-.92.32-1.97.59-3.15.81s-2.33.37-3.45.45l-3 .12-.12.36 2.31 1.83 2.7 2.37c.9.84 1.63 1.68 2.19 2.52l2.46 3.54-5.52 3.84-2.46-3.54c-.6-.84-1.15-1.83-1.65-2.97l-1.32-3.39-.93-2.82h-.36l-.93 2.82-1.32 3.39c-.5 1.14-1.07 2.13-1.71 2.97l-2.46 3.54zm28.2 7.02l21-56.4h7.8l-21 56.4h-7.8z"/></svg>