<svg xmlns="http://www.w3.org/2000/svg" xmlns:xlink="http://www.w3.org/1999/xlink" baseProfile="tiny" viewBox="0 0 960 480" overflow="visible"><g fill="#fff"><path d="M269.4 255.84v-6.78h8.82v-30.24h-8.82v-6.78h25.2v6.78h-8.82v30.24h8.82v6.78h-25.2zm35.22 0v-33h7.32v6.3h2.04l-2.04 1.74c0-2.68.79-4.79 2.37-6.33s3.75-2.31 6.51-2.31c3.24 0 5.83 1.08 7.77 3.24s2.91 5.06 2.91 8.7v21.66H324v-20.88c0-2-.52-3.54-1.56-4.62s-2.48-1.62-4.32-1.62c-1.88 0-3.35.56-4.41 1.68s-1.59 2.72-1.59 4.8v20.64h-7.5zm48.12.54c-2.52 0-4.74-.4-6.66-1.2s-3.41-1.91-4.47-3.33-1.59-3.11-1.59-5.07h7.56c0 1.16.47 2.05 1.41 2.67s2.21.93 3.81.93h2.58c1.84 0 3.23-.34 4.17-1.02s1.41-1.62 1.41-2.82c0-1.16-.44-2.09-1.32-2.79s-2.14-1.17-3.78-1.41l-4.62-.6c-3.44-.52-6.03-1.6-7.77-3.24s-2.61-3.86-2.61-6.66c0-3.12 1.05-5.49 3.15-7.11s5.15-2.43 9.15-2.43h2.28c3.76 0 6.76.82 9 2.46s3.36 3.84 3.36 6.6h-7.56c0-.96-.42-1.71-1.26-2.25s-2.04-.81-3.6-.81h-2.28c-1.6 0-2.82.31-3.66.93s-1.26 1.49-1.26 2.61c0 2.04 1.46 3.28 4.38 3.72l4.68.72c3.72.48 6.49 1.55 8.31 3.21s2.73 3.95 2.73 6.87c0 3.16-1.09 5.62-3.27 7.38s-5.39 2.64-9.63 2.64h-2.64z"/><use href="#B"/><path d="M422.34 256.44c-3.4 0-6.08-.9-8.04-2.7s-2.94-4.22-2.94-7.26c0-3.24 1.11-5.75 3.33-7.53s5.35-2.67 9.39-2.67H432v-2.76c0-1.6-.53-2.84-1.59-3.72s-2.51-1.32-4.35-1.32c-1.72 0-3.13.36-4.23 1.08s-1.71 1.68-1.83 2.88h-7.14c.12-2.08.75-3.88 1.89-5.4s2.7-2.7 4.68-3.54 4.27-1.26 6.87-1.26c4.08 0 7.3 1 9.66 3s3.54 4.74 3.54 8.22v22.38h-7.26v-5.58h-1.2l1.26-1.8c0 2.44-.9 4.38-2.7 5.82s-4.22 2.16-7.26 2.16zm2.46-5.58c2.12 0 3.85-.54 5.19-1.62a5.14 5.14 0 0 0 2.01-4.2v-3.96h-7.74c-1.68 0-3 .43-3.96 1.29s-1.44 2.03-1.44 3.51c0 1.56.52 2.78 1.56 3.66s2.5 1.32 4.38 1.32z"/><use href="#C"/><use href="#C" x="36"/><path d="M530.34 256.44c-3.4 0-6.08-.9-8.04-2.7s-2.94-4.22-2.94-7.26c0-3.24 1.11-5.75 3.33-7.53s5.35-2.67 9.39-2.67H540v-2.76c0-1.6-.53-2.84-1.59-3.72s-2.51-1.32-4.35-1.32c-1.72 0-3.13.36-4.23 1.08s-1.71 1.68-1.83 2.88h-7.14c.12-2.08.75-3.88 1.89-5.4s2.7-2.7 4.68-3.54 4.27-1.26 6.87-1.26c4.08 0 7.3 1 9.66 3s3.54 4.74 3.54 8.22v22.38h-7.26v-5.58h-1.2l1.26-1.8c0 2.44-.9 4.38-2.7 5.82s-4.22 2.16-7.26 2.16zm2.46-5.58c2.12 0 3.85-.54 5.19-1.62a5.14 5.14 0 0 0 2.01-4.2v-3.96h-7.74c-1.68 0-3 .43-3.96 1.29s-1.44 2.03-1.44 3.51c0 1.56.52 2.78 1.56 3.66s2.5 1.32 4.38 1.32z"/><use href="#B" x="180"/><path d="M592.56 255.84v-6.78h11.28v-19.44h-10.08v-6.78h17.58v26.22h10.14v6.78h-28.92zm14.52-38.52c-1.52 0-2.72-.39-3.6-1.17s-1.32-1.83-1.32-3.15.44-2.37 1.32-3.15 2.08-1.17 3.6-1.17 2.72.39 3.6 1.17S612 211.68 612 213s-.44 2.37-1.32 3.15-2.08 1.17-3.6 1.17zM642 256.38c-2.8 0-5.24-.53-7.32-1.59s-3.68-2.56-4.8-4.5-1.68-4.23-1.68-6.87v-8.16c0-2.64.56-4.93 1.68-6.87s2.72-3.44 4.8-4.5 4.52-1.59 7.32-1.59c2.84 0 5.29.53 7.35 1.59s3.65 2.56 4.77 4.5 1.68 4.21 1.68 6.81v8.22c0 2.64-.56 4.93-1.68 6.87s-2.71 3.44-4.77 4.5-4.51 1.59-7.35 1.59zm0-6.54c2 0 3.55-.55 4.65-1.65s1.65-2.69 1.65-4.77v-8.16c0-2.12-.55-3.72-1.65-4.8s-2.65-1.62-4.65-1.62c-1.96 0-3.5.54-4.62 1.62s-1.68 2.68-1.68 4.8v8.16c0 2.08.56 3.67 1.68 4.77s2.66 1.65 4.62 1.65zm22.62 6v-33h7.32v6.3h2.04l-2.04 1.74c0-2.68.79-4.79 2.37-6.33s3.75-2.31 6.51-2.31c3.24 0 5.83 1.08 7.77 3.24s2.91 5.06 2.91 8.7v21.66H684v-20.88c0-2-.52-3.54-1.56-4.62s-2.48-1.62-4.32-1.62c-1.88 0-3.35.56-4.41 1.68s-1.59 2.72-1.59 4.8v20.64h-7.5z"/></g><defs ><path id="B" d="M393.6 255.84c-3.08 0-5.53-.89-7.35-2.67s-2.73-4.19-2.73-7.23v-16.32h-8.94v-6.78h8.94v-9.3h7.56v9.3h12.66v6.78h-12.66v16.14c0 .96.27 1.75.81 2.37s1.29.93 2.25.93h9v6.78h-9.54z"/><path id="C" d="M467.34 255.84c-2.16 0-4.05-.44-5.67-1.32s-2.89-2.13-3.81-3.75-1.38-3.49-1.38-5.61v-26.34h-10.86v-6.78h18.36v32.94c0 1.24.35 2.23 1.05 2.97s1.65 1.11 2.85 1.11h9.66v6.78h-10.2z"/></defs></svg>