<svg xmlns="http://www.w3.org/2000/svg" baseProfile="tiny" overflow="visible" viewBox="0 0 512 512"><radialGradient id="a" cx="256" cy="256" r="256" gradientUnits="userSpaceOnUse"><stop offset="0" stop-color="#7d06b3"/><stop offset="1" stop-color="#100313"/></radialGradient><path fill="url(#a)" d="M0 0h512v512H0z"/><linearGradient id="b" x1="256" x2="256" y1="512" y2="172" gradientUnits="userSpaceOnUse"><stop offset="0" stop-color="#2a164b"/><stop offset="1" stop-color="#7741b3"/></linearGradient><path fill="url(#b)" d="M300 172h-88c-25.41 0-46 20.59-46 46v294h180V218c0-25.41-20.59-46-46-46z"/><linearGradient id="c" x1="166" x2="166" y1="365" y2="365" gradientUnits="userSpaceOnUse"><stop offset="0" stop-color="#7d06b3"/><stop offset="1" stop-color="#fff"/></linearGradient><path fill="url(#c)" d="M166 218v294"/><linearGradient id="d" x1="166" x2="166" y1="512" y2="218" gradientUnits="userSpaceOnUse"><stop offset="0" stop-color="#7e46b4"/><stop offset=".5" stop-color="#6544a2"/><stop offset="1" stop-color="#7e46b4"/></linearGradient><path fill="url(#d)" d="m166 218 .49 36.75.28 36.75.23 73.5-.23 73.5-.28 36.75L166 512l-.49-36.75-.28-36.75L165 365l.23-73.5.28-36.75L166 218z"/><path fill="#fff" d="M214.07 266.14c-2.11 0-3.94-.4-5.5-1.2a8.51 8.51 0 0 1-3.6-3.48c-.85-1.52-1.27-3.32-1.27-5.4v-15.84c0-2.11.42-3.92 1.27-5.42a8.58 8.58 0 0 1 3.6-3.46c1.55-.8 3.38-1.2 5.5-1.2 2.11 0 3.94.41 5.47 1.22s2.72 1.98 3.55 3.48 1.25 3.3 1.25 5.38h-4.32c0-1.98-.52-3.51-1.56-4.58s-2.5-1.61-4.39-1.61-3.37.53-4.44 1.58c-1.07 1.06-1.61 2.58-1.61 4.56v15.89c0 1.98.54 3.52 1.61 4.61s2.55 1.63 4.44 1.63 3.35-.54 4.39-1.63 1.56-2.62 1.56-4.61v-4.32h-7.1v-3.94h11.42v8.26c0 2.05-.42 3.83-1.25 5.35s-2.02 2.69-3.55 3.5c-1.53.82-3.35 1.23-5.47 1.23zm18.72-.48v-26.4h4.32v5.04h.91l-.91 1.01c0-2.08.62-3.69 1.87-4.82 1.25-1.14 2.98-1.7 5.18-1.7 2.75 0 4.94.87 6.58 2.62 1.63 1.74 2.45 4.1 2.45 7.08v1.82h-4.32v-1.44c0-2.02-.51-3.58-1.54-4.68-1.02-1.1-2.51-1.66-4.46-1.66-1.86 0-3.28.54-4.27 1.61s-1.49 2.65-1.49 4.73v16.8h-4.32zm26.93 0v-3.94h9.36v-18.53h-8.4v-3.94h12.72v22.46h8.88v3.94h-22.56zm11.04-31.16c-1.06 0-1.89-.27-2.5-.82-.61-.54-.91-1.28-.91-2.21 0-.96.3-1.72.91-2.28s1.44-.84 2.5-.84 1.89.28 2.5.84.91 1.32.91 2.28c0 .93-.3 1.66-.91 2.21s-1.44.82-2.5.82zm15.84 31.16v-26.4h3.79v3.17h.86l-.67 1.15c0-1.41.42-2.56 1.25-3.46s1.92-1.34 3.26-1.34c1.41 0 2.55.58 3.43 1.73s1.32 2.66 1.32 4.51l-1.3-2.59h2.02l-.91 1.15c0-1.41.42-2.56 1.27-3.46s1.96-1.34 3.34-1.34c1.6 0 2.9.63 3.89 1.9.99 1.26 1.49 2.9 1.49 4.92v20.06h-3.98v-20.11c0-1.12-.25-1.98-.74-2.57-.5-.59-1.21-.89-2.14-.89s-1.65.3-2.16.89-.77 1.43-.77 2.52v20.16h-3.46v-20.11c0-1.12-.26-1.98-.79-2.57s-1.26-.89-2.18-.89c-.9 0-1.59.3-2.09.89s-.74 1.43-.74 2.52v20.16h-3.99z"/><linearGradient id="e" x1="346" x2="346" y1="365" y2="365" gradientUnits="userSpaceOnUse"><stop offset="0" stop-color="#7d06b3"/><stop offset="1" stop-color="#fff"/></linearGradient><path fill="url(#e)" d="M346 218v294"/><linearGradient id="f" x1="346" x2="346" y1="512" y2="218" gradientUnits="userSpaceOnUse"><stop offset="0" stop-color="#7e46b4"/><stop offset=".5" stop-color="#6544a2"/><stop offset="1" stop-color="#7e46b4"/></linearGradient><path fill="url(#f)" d="m346 218 .49 36.75.28 36.75.23 73.5-.23 73.5-.28 36.75L346 512l-.49-36.75-.28-36.75L345 365l.23-73.5.28-36.75L346 218z"/></svg>