<svg xmlns="http://www.w3.org/2000/svg" xmlns:xlink="http://www.w3.org/1999/xlink" baseProfile="tiny" viewBox="0 0 960 480" overflow="visible" xmlns:v="https://vecta.io/nano"><g fill="#fff"><path d="M223.44 252.48l-26.88-12.66v-7.5l26.88-12.66v6.9l-17.4 8.04-2.37.93c-.78.26-1.39.43-1.83.51.44.08 1.06.24 1.86.48s1.58.54 2.34.9l17.4 8.04v7.02zm9.18 3.36v-33h7.32v6.3h2.04l-2.04 1.74c0-2.68.79-4.79 2.37-6.33s3.75-2.31 6.51-2.31c3.24 0 5.83 1.08 7.77 3.24s2.91 5.06 2.91 8.7v21.66H252v-20.88c0-2-.52-3.54-1.56-4.62s-2.48-1.62-4.32-1.62c-1.88 0-3.35.56-4.41 1.68s-1.59 2.72-1.59 4.8v20.64h-7.5zm49.38.54c-2.8 0-5.24-.53-7.32-1.59s-3.68-2.56-4.8-4.5-1.68-4.23-1.68-6.87v-8.16c0-2.64.56-4.93 1.68-6.87s2.72-3.44 4.8-4.5 4.52-1.59 7.32-1.59c2.84 0 5.29.53 7.35 1.59s3.65 2.56 4.77 4.5 1.68 4.21 1.68 6.81v8.22c0 2.64-.56 4.93-1.68 6.87s-2.71 3.44-4.77 4.5-4.51 1.59-7.35 1.59zm0-6.54c2 0 3.55-.55 4.65-1.65s1.65-2.69 1.65-4.77v-8.16c0-2.12-.55-3.72-1.65-4.8s-2.65-1.62-4.65-1.62c-1.96 0-3.5.54-4.62 1.62s-1.68 2.68-1.68 4.8v8.16c0 2.08.56 3.67 1.68 4.77s2.66 1.65 4.62 1.65zm33 6.6c-3.2 0-5.8-1.14-7.8-3.42s-3-5.34-3-9.18v-8.94c0-3.88 1-6.96 3-9.24s4.6-3.42 7.8-3.42c2.96 0 5.28.93 6.96 2.79s2.52 4.39 2.52 7.59l-2.1-3.84h1.74l-.24-7.5v-9.24h7.5v43.8h-7.32v-5.94h-1.68l2.1-3.84c0 3.24-.84 5.78-2.52 7.62s-4 2.76-6.96 2.76zm2.82-6.48c1.92 0 3.41-.58 4.47-1.74s1.59-2.8 1.59-4.92v-7.92c0-2.12-.53-3.76-1.59-4.92s-2.55-1.74-4.47-1.74-3.42.56-4.5 1.68-1.62 2.72-1.62 4.8v8.28c0 2.08.54 3.68 1.62 4.8s2.58 1.68 4.5 1.68z"/><use xlink:href="#B"/><path d="M413.58 255.84v-33h7.32v6.3h2.04l-2.04 1.74c0-2.68.82-4.79 2.46-6.33s3.88-2.31 6.72-2.31c3.4 0 6.12 1.12 8.16 3.36s3.06 5.26 3.06 9.06v2.7h-7.86v-2.16c0-2.08-.53-3.68-1.59-4.8s-2.59-1.68-4.59-1.68-3.53.58-4.59 1.74-1.59 2.88-1.59 5.16v20.22h-7.5z"/><use xlink:href="#B" x="108"/><path d="M492.3 255.84v-22.56h-9.06v-6.78h9.06v-4.98c0-2.88.96-5.18 2.88-6.9s4.46-2.58 7.62-2.58h9.66v6.6h-9.48c-.96 0-1.73.27-2.31.81s-.87 1.27-.87 2.19v4.86h12.66v6.78H499.8v22.56h-7.5zm28.62-23.7v-6.9h26.16v6.9h-26.16zm0 14.7v-6.9h26.16v6.9h-26.16zm57.6 15.66c-2.36 0-4.4-.44-6.12-1.32s-3-2.12-3.84-3.72-1.16-3.48-.96-5.64l.9-9.12c.16-1.64-.12-2.88-.84-3.72s-1.96-1.26-3.72-1.26h-7.8v-6.9h7.8c1.76 0 3-.42 3.72-1.26s1-2.06.84-3.66l-.9-9.42c-.2-2.12.13-3.96.99-5.52s2.14-2.77 3.84-3.63 3.73-1.29 6.09-1.29h4.14v6.9h-3.06c-1.44 0-2.57.37-3.39 1.11s-1.19 1.79-1.11 3.15l.9 9.36c.24 2.36-.44 4.24-2.04 5.64s-3.8 2.1-6.6 2.1v-.36c2.76 0 4.95.74 6.57 2.22s2.31 3.42 2.07 5.82l-.9 9.36c-.12 1.32.23 2.35 1.05 3.09s1.97 1.11 3.45 1.11h3.06v6.96h-4.14z"/><use xlink:href="#B" x="252"/><path d="M647.34 255.84c-2.16 0-4.05-.44-5.67-1.32s-2.89-2.13-3.81-3.75-1.38-3.49-1.38-5.61v-26.34h-10.86v-6.78h18.36v32.94c0 1.24.35 2.23 1.05 2.97s1.65 1.11 2.85 1.11h9.66v6.78h-10.2zm18 6.66v-6.96h3.06c1.48 0 2.63-.37 3.45-1.11s1.17-1.77 1.05-3.09l-.9-9.36c-.24-2.4.45-4.35 2.07-5.85s3.81-2.25 6.57-2.25v.42c-2.8 0-5-.7-6.6-2.1s-2.28-3.28-2.04-5.64l.9-9.36c.08-1.36-.29-2.41-1.11-3.15s-1.95-1.11-3.39-1.11h-3.06v-6.9h4.14c2.36 0 4.39.43 6.09 1.29s2.98 2.07 3.84 3.63 1.19 3.4.99 5.52l-.9 9.42c-.16 1.6.12 2.82.84 3.66s1.96 1.26 3.72 1.26h7.8v6.9h-7.8c-1.76 0-3 .42-3.72 1.26s-1 2.08-.84 3.72l.9 9.12c.2 2.16-.13 4.04-.99 5.64s-2.14 2.84-3.84 3.72-3.73 1.32-6.09 1.32h-4.14zm36.54-.06l20.94-56.4h7.86l-3.9 10.5 33.96 15.78v7.5l-26.88 12.66v-7.02l17.4-8.04c.84-.36 1.7-.65 2.58-.87s1.58-.35 2.1-.39c-.52-.08-1.23-.23-2.13-.45s-1.75-.51-2.55-.87l-26.7-12.42-14.88 40.02h-7.8z"/></g><defs ><path id="B" d="M354.06 256.44c-2.8 0-5.24-.54-7.32-1.62s-3.69-2.59-4.83-4.53-1.71-4.21-1.71-6.81v-8.28c0-2.6.57-4.87 1.71-6.81s2.75-3.45 4.83-4.53 4.52-1.62 7.32-1.62c2.76 0 5.17.54 7.23 1.62s3.66 2.59 4.8 4.53 1.71 4.21 1.71 6.81v5.94h-20.34v2.34c0 2.32.56 4.07 1.68 5.25s2.78 1.77 4.98 1.77c1.68 0 3.04-.29 4.08-.87s1.7-1.43 1.98-2.55h7.38c-.56 2.84-2.07 5.11-4.53 6.81s-5.45 2.55-8.97 2.55zm6.48-19.5v-1.8c0-2.28-.54-4.03-1.62-5.25s-2.7-1.83-4.86-1.83-3.8.62-4.92 1.86-1.68 3-1.68 5.28v1.26l13.62-.12-.54.6z"/></defs></svg>