<svg xmlns="http://www.w3.org/2000/svg" baseProfile="tiny" viewBox="0 0 960 480" overflow="visible" fill="#fff" xmlns:v="https://vecta.io/nano"><path d="M412.56 255.84v-43.8h13.86c2.92 0 5.45.54 7.59 1.62s3.81 2.59 5.01 4.53 1.8 4.23 1.8 6.87c0 2.88-.73 5.42-2.19 7.62a11.88 11.88 0 0 1-5.91 4.68l8.7 18.48h-8.4l-7.62-17.4h-5.34v17.4h-7.5zm7.5-24h6.36c2.12 0 3.78-.58 4.98-1.74s1.8-2.76 1.8-4.8c0-2.08-.6-3.71-1.8-4.89s-2.86-1.77-4.98-1.77h-6.36v13.2zm29.22 24v-43.8h26.28v6.6h-18.9v11.4h16.8v6.36h-16.8v12.84h18.9v6.6h-26.28zm35.34 0v-43.8h14.58c2.92 0 5.47.56 7.65 1.68s3.87 2.69 5.07 4.71 1.8 4.39 1.8 7.11c0 2.68-.61 5.04-1.83 7.08s-2.91 3.62-5.07 4.74-4.7 1.68-7.62 1.68h-7.08v16.8h-7.5zm7.5-23.4h7.08c2.08 0 3.75-.64 5.01-1.92s1.89-2.94 1.89-4.98c0-2.08-.63-3.75-1.89-5.01s-2.93-1.89-5.01-1.89h-7.08v13.8zm31.14 23.4v-43.8h7.5v37.02h18.6v6.78h-26.1z"/></svg>