<svg xmlns="http://www.w3.org/2000/svg" xmlns:xlink="http://www.w3.org/1999/xlink" baseProfile="tiny" viewBox="0 0 960 480" overflow="visible"><g fill="#fff"><path d="M174.12 256.44c-2.96 0-5.55-.51-7.77-1.53s-3.93-2.46-5.13-4.32-1.8-4.05-1.8-6.57h7.5c0 1.8.66 3.23 1.98 4.29s3.08 1.59 5.28 1.59c2.16 0 3.85-.53 5.07-1.59s1.83-2.47 1.83-4.23c0-1.48-.42-2.76-1.26-3.84s-2-1.8-3.48-2.16l-5.28-1.44c-3.4-.92-6.04-2.51-7.92-4.77s-2.82-4.99-2.82-8.19c0-3.72 1.24-6.69 3.72-8.91s5.82-3.33 10.02-3.33c4.24 0 7.61 1.09 10.11 3.27s3.75 5.11 3.75 8.79h-7.5c0-1.72-.57-3.07-1.71-4.05s-2.71-1.47-4.71-1.47c-1.96 0-3.49.49-4.59 1.47s-1.65 2.35-1.65 4.11c0 1.36.42 2.54 1.26 3.54s2.02 1.7 3.54 2.1l5.34 1.5c3.44.88 6.08 2.46 7.92 4.74s2.76 5.08 2.76 8.4c0 2.52-.6 4.73-1.8 6.63s-2.88 3.37-5.04 4.41-4.7 1.56-7.62 1.56zm22.5 10.2v-43.8h7.32v5.94h1.68l-2.1 3.84c0-3.24.86-5.78 2.58-7.62s4.02-2.76 6.9-2.76c3.28 0 5.9 1.14 7.86 3.42s2.94 5.34 2.94 9.18v8.94c0 2.56-.45 4.79-1.35 6.69s-2.15 3.37-3.75 4.41-3.5 1.56-5.7 1.56c-2.88 0-5.18-.93-6.9-2.79s-2.58-4.39-2.58-7.59l2.1 3.84h-1.68l.18 7.5v9.24h-7.5zm13.62-16.68c1.92 0 3.41-.56 4.47-1.68s1.59-2.72 1.59-4.8v-8.28c0-2.08-.53-3.68-1.59-4.8s-2.55-1.68-4.47-1.68-3.42.58-4.5 1.74-1.62 2.8-1.62 4.92v7.92c0 2.12.54 3.76 1.62 4.92s2.58 1.74 4.5 1.74z"/><use href="#B"/><path d="M282.18 256.44c-2.8 0-5.25-.53-7.35-1.59s-3.73-2.56-4.89-4.5-1.74-4.23-1.74-6.87v-8.28c0-2.68.58-4.98 1.74-6.9s2.79-3.41 4.89-4.47 4.55-1.59 7.35-1.59c4.16 0 7.48 1.07 9.96 3.21s3.78 5.05 3.9 8.73h-7.32c-.12-1.72-.76-3.05-1.92-3.99s-2.7-1.41-4.62-1.41c-2 0-3.58.55-4.74 1.65s-1.74 2.67-1.74 4.71v8.34c0 2.04.58 3.62 1.74 4.74s2.74 1.68 4.74 1.68c1.92 0 3.46-.47 4.62-1.41s1.8-2.27 1.92-3.99h7.32c-.12 3.68-1.42 6.59-3.9 8.73s-5.8 3.21-9.96 3.21zm22.38-.6v-6.78h11.28v-19.44h-10.08v-6.78h17.58v26.22h10.14v6.78h-28.92zm14.52-38.52c-1.52 0-2.72-.39-3.6-1.17s-1.32-1.83-1.32-3.15.44-2.37 1.32-3.15 2.08-1.17 3.6-1.17 2.72.39 3.6 1.17S324 211.68 324 213s-.44 2.37-1.32 3.15-2.08 1.17-3.6 1.17zm31.26 39.12c-3.4 0-6.08-.9-8.04-2.7s-2.94-4.22-2.94-7.26c0-3.24 1.11-5.75 3.33-7.53s5.35-2.67 9.39-2.67H360v-2.76c0-1.6-.53-2.84-1.59-3.72s-2.51-1.32-4.35-1.32c-1.72 0-3.13.36-4.23 1.08s-1.71 1.68-1.83 2.88h-7.14c.12-2.08.75-3.88 1.89-5.4s2.7-2.7 4.68-3.54 4.27-1.26 6.87-1.26c4.08 0 7.3 1 9.66 3s3.54 4.74 3.54 8.22v22.38h-7.26v-5.58h-1.2l1.26-1.8c0 2.44-.9 4.38-2.7 5.82s-4.22 2.16-7.26 2.16zm2.46-5.58c2.12 0 3.85-.54 5.19-1.62a5.14 5.14 0 0 0 2.01-4.2v-3.96h-7.74c-1.68 0-3 .43-3.96 1.29s-1.44 2.03-1.44 3.51c0 1.56.52 2.78 1.56 3.66s2.5 1.32 4.38 1.32zm42.54 4.98c-2.16 0-4.05-.44-5.67-1.32s-2.89-2.13-3.81-3.75-1.38-3.49-1.38-5.61v-26.34h-10.86v-6.78h18.36v32.94c0 1.24.35 2.23 1.05 2.97s1.65 1.11 2.85 1.11h9.66v6.78h-10.2zm50.76 0l11.04-43.8h9.66l11.1 43.8h-7.68l-2.4-10.62h-11.64l-2.4 10.62h-7.68zm11.46-16.74h8.88l-2.64-11.76-1.14-5.31-.66-3.45-.63 3.45-1.17 5.25-2.64 11.82z"/><use href="#C"/><use href="#C" x="36"/><path d="M557.58 255.84v-33h7.32v6.3h2.04l-2.04 1.74c0-2.68.82-4.79 2.46-6.33s3.88-2.31 6.72-2.31c3.4 0 6.12 1.12 8.16 3.36s3.06 5.26 3.06 9.06v2.7h-7.86v-2.16c0-2.08-.53-3.68-1.59-4.8s-2.59-1.68-4.59-1.68-3.53.58-4.59 1.74-1.59 2.88-1.59 5.16v20.22h-7.5zm34.98 0v-6.78h11.28v-19.44h-10.08v-6.78h17.58v26.22h10.14v6.78h-28.92zm14.52-38.52c-1.52 0-2.72-.39-3.6-1.17s-1.32-1.83-1.32-3.15.44-2.37 1.32-3.15 2.08-1.17 3.6-1.17 2.72.39 3.6 1.17S612 211.68 612 213s-.44 2.37-1.32 3.15-2.08 1.17-3.6 1.17zm37.74 39.12c-2.72 0-4.91-.77-6.57-2.31s-2.49-3.65-2.49-6.33l1.86 1.74h-1.68v6.3h-7.32v-43.8h7.5v9.24l-.24 7.86h1.74l-1.86 1.74c0-2.68.83-4.79 2.49-6.33s3.85-2.31 6.57-2.31c3.32 0 5.98 1.14 7.98 3.42s3 5.36 3 9.24v8.94c0 3.84-1 6.9-3 9.18s-4.66 3.42-7.98 3.42zm-2.64-6.48c1.92 0 3.42-.56 4.5-1.68s1.62-2.72 1.62-4.8v-8.28c0-2.08-.54-3.68-1.62-4.8s-2.58-1.68-4.5-1.68c-1.88 0-3.36.57-4.44 1.71s-1.62 2.73-1.62 4.77v8.28c0 2.04.54 3.63 1.62 4.77s2.56 1.71 4.44 1.71zm35.82 6.48c-4.2 0-7.5-1.17-9.9-3.51s-3.6-5.53-3.6-9.57v-20.52h7.5v20.46c0 2.12.52 3.75 1.56 4.89s2.52 1.71 4.44 1.71c1.88 0 3.35-.57 4.41-1.71s1.59-2.77 1.59-4.89v-20.46h7.5v20.52c0 4.04-1.22 7.23-3.66 9.57s-5.72 3.51-9.84 3.51z"/><use href="#C" x="216"/><use href="#B" x="504"/><path d="M784.74 256.38c-2.52 0-4.74-.4-6.66-1.2s-3.41-1.91-4.47-3.33-1.59-3.11-1.59-5.07h7.56c0 1.16.47 2.05 1.41 2.67s2.21.93 3.81.93h2.58c1.84 0 3.23-.34 4.17-1.02s1.41-1.62 1.41-2.82c0-1.16-.44-2.09-1.32-2.79s-2.14-1.17-3.78-1.41l-4.62-.6c-3.44-.52-6.03-1.6-7.77-3.24s-2.61-3.86-2.61-6.66c0-3.12 1.05-5.49 3.15-7.11s5.15-2.43 9.15-2.43h2.28c3.76 0 6.76.82 9 2.46s3.36 3.84 3.36 6.6h-7.56c0-.96-.42-1.71-1.26-2.25s-2.04-.81-3.6-.81h-2.28c-1.6 0-2.82.31-3.66.93s-1.26 1.49-1.26 2.61c0 2.04 1.46 3.28 4.38 3.72l4.68.72c3.72.48 6.49 1.55 8.31 3.21s2.73 3.95 2.73 6.87c0 3.16-1.09 5.62-3.27 7.38s-5.39 2.64-9.63 2.64h-2.64z"/></g><defs ><path id="B" d="M246.06 256.44c-2.8 0-5.24-.54-7.32-1.62s-3.69-2.59-4.83-4.53-1.71-4.21-1.71-6.81v-8.28c0-2.6.57-4.87 1.71-6.81s2.75-3.45 4.83-4.53 4.52-1.62 7.32-1.62c2.76 0 5.17.54 7.23 1.62s3.66 2.59 4.8 4.53 1.71 4.21 1.71 6.81v5.94h-20.34v2.34c0 2.32.56 4.07 1.68 5.25s2.78 1.77 4.98 1.77c1.68 0 3.04-.29 4.08-.87s1.7-1.43 1.98-2.55h7.38c-.56 2.84-2.07 5.11-4.53 6.81s-5.45 2.55-8.97 2.55zm6.48-19.5v-1.8c0-2.28-.54-4.03-1.62-5.25s-2.7-1.83-4.86-1.83-3.8.62-4.92 1.86-1.68 3-1.68 5.28v1.26l13.62-.12-.54.6z"/><path id="C" d="M501.6 255.84c-3.08 0-5.53-.89-7.35-2.67s-2.73-4.19-2.73-7.23v-16.32h-8.94v-6.78h8.94v-9.3h7.56v9.3h12.66v6.78h-12.66v16.14c0 .96.27 1.75.81 2.37s1.29.93 2.25.93h9v6.78h-9.54z"/></defs></svg>